<svg xmlns="http://www.w3.org/2000/svg" width="155" height="52" viewBox="0 0 155 52"><path d="m39.67,17.44c2.24-.67,3.29-2.04,3.29-4.35,0-3.15-2.09-4.93-5.83-4.93h-4.6v19.47h4.99c3.71,0,5.92-2.07,5.92-5.52,0-2.57-1.08-3.91-3.76-4.67Zm-4.06-6.51h1.17c1.17,0,1.79.17,2.3.61.48.44.75,1.08.75,1.81,0,1.66-1.23,2.74-3.11,2.74h-1.11v-5.17Zm1.55,13.93h-1.55v-5.99h1.11c2.15,0,3.52,1.28,3.52,3.24,0,1.75-1.11,2.74-3.08,2.74Zm19.3,1.2c.81-1.11,1.13-2.42,1.13-4.61v-7.09c0-2.19-.33-3.5-1.13-4.61-.9-1.23-2.39-1.87-4.3-1.87s-3.41.64-4.3,1.87c-.81,1.11-1.14,2.42-1.14,4.61v7.09c0,2.19.33,3.5,1.14,4.61.9,1.23,2.39,1.87,4.3,1.87s3.41-.64,4.3-1.87Zm-6.27-2.02c-.3-.58-.39-1.11-.39-2.66v-6.98c0-1.55.09-2.07.39-2.66.36-.64,1.11-1.05,1.97-1.05s1.61.41,1.97,1.05c.33.61.39,1.08.39,2.66v6.98c0,1.58-.06,2.04-.39,2.66-.36.64-1.11,1.05-1.97,1.05s-1.61-.41-1.97-1.05Zm20.52,2.02c.81-1.11,1.13-2.42,1.13-4.61v-7.09c0-2.19-.33-3.5-1.13-4.61-.9-1.23-2.39-1.87-4.3-1.87s-3.41.64-4.3,1.87c-.81,1.11-1.14,2.42-1.14,4.61v7.09c0,2.19.33,3.5,1.14,4.61.9,1.23,2.39,1.87,4.3,1.87s3.41-.64,4.3-1.87Zm-1.94-4.67c0,1.58-.06,2.04-.39,2.66-.36.64-1.11,1.05-1.97,1.05s-1.61-.41-1.97-1.05c-.3-.58-.39-1.11-.39-2.66v-6.98c0-1.55.09-2.07.39-2.66.36-.64,1.11-1.05,1.97-1.05s1.61.41,1.97,1.05c.33.61.39,1.08.39,2.66v6.98Zm5.67-13.23h10.81v2.77h-3.88v16.7h-3.08V10.93h-3.85v-2.77Zm23.03,11.24c.81.96,1.28,2.25,1.28,3.56,0,2.95-2.21,4.96-5.47,4.96s-5.41-1.78-6.03-5.49l2.96-.85c.39,2.34,1.43,3.5,3.08,3.5,1.34,0,2.27-.91,2.27-2.22,0-1.23-.63-2.01-2.96-3.79-2.78-2.13-2.9-2.25-3.64-3.18-.72-.91-1.11-2.04-1.11-3.24,0-2.8,2.15-4.79,5.2-4.79,2.84,0,4.75,1.66,5.59,4.88l-2.96.85c-.48-1.93-1.37-2.89-2.63-2.89-1.14,0-2,.85-2,1.99,0,.67.3,1.4.84,1.96q.51.55,2.63,2.13c1.67,1.29,2.3,1.84,2.96,2.63Zm3.4-11.24h10.81v2.77h-3.88v16.7h-3.08V10.93h-3.85v-2.77Zm24.26,5.58c0-1.93-.6-3.42-1.79-4.41-.96-.82-2.12-1.17-3.94-1.17h-4.81v19.47h3.08v-8h1.85l2.63,8h3.23l-2.93-8.85c1.79-.91,2.69-2.6,2.69-5.05Zm-3.94,2.51c-.48.47-1.08.61-2.39.61h-1.14v-5.93h1.14c1.31,0,1.91.15,2.39.61.51.5.75,1.28.75,2.34s-.24,1.87-.75,2.37Zm10.84-8.09l-3.82,19.47h3.02l.81-4.23h4.24l.84,4.23h3.17l-4.03-19.47h-4.21Zm.48,12.47l1.61-8.73,1.64,8.73h-3.26Zm19.92-11.21c-.93-.88-2.18-1.26-4.18-1.26h-5.11v19.47h3.08v-7.88h2.03c2,0,3.26-.38,4.18-1.26,1.08-.99,1.58-2.45,1.58-4.55s-.51-3.53-1.58-4.53Zm-4.87,7.56h-1.34v-6.04h1.34c2.48,0,3.26.73,3.26,3.01s-.78,3.04-3.26,3.04Zm-107.12,20.34c1.46-.64,2.28-1.89,2.28-3.45,0-3.82-4.56-4.34-7.53-4.34-.88,0-1.77.05-2.65.11v15.54c1,.11,2,.18,3,.18,2.86,0,7.41-.7,7.41-4.34,0-1.68-.95-3.02-2.51-3.7Zm-3.37,4.48v-2.98c.77,0,1.32.89,1.32,1.57s-.58,1.41-1.32,1.41Zm0-5.86v-3c.77.02,1.32.91,1.32,1.57,0,.7-.58,1.41-1.32,1.43Zm24.7-1.05c0-4.04-3.79-5.54-7.37-5.54-1.05,0-2.07.11-3.09.3v15.54h4.58v-4.59l1.53,4.59h4.95l-2.84-6.16c1.3-.86,2.23-2.59,2.23-4.13Zm-5.88,1.66v-3.32c1,0,1.44.75,1.44,1.66s-.44,1.66-1.44,1.66Zm18.17-6.9l-5.18,15.54h4.3l.16-.57h2.21l.16.57h4.28l-5.16-15.54h-.77Zm-.12,12.7l.49-1.79.49,1.79h-.98Zm13.94-12.7h4.58v15.54h-4.58v-15.54Zm19.17,0h4.58v15.54h-.91l-4.86-5.56v5.56h-4.58v-15.54h.93l4.83,5.54v-5.54ZM1,23.58c0,1.01.29,1.98.84,2.82-.55.84-.84,1.81-.84,2.82,0,1.48.65,2.9,1.77,3.9-.28.67-.42,1.39-.42,2.12,0,2.74,2.02,5.06,4.72,5.54,0,.13-.01.25-.01.38,0,3.62,3.02,6.57,6.73,6.57.56,0,1.12-.07,1.66-.2.75,2.06,2.78,3.49,5.07,3.49,2.97,0,5.38-2.36,5.38-5.26V6.83c0-.11-.03-.22-.08-.31-.03-.52-.13-1.03-.29-1.52-.83-2.44-3.16-4-5.66-4-.62,0-1.25.09-1.86.29-1.83.59-3.25,2.02-3.82,3.79-.13,0-.26-.01-.39-.01-3.6,0-6.53,2.86-6.53,6.39,0,.1,0,.2,0,.3-2.75.23-4.91,2.49-4.91,5.24,0,.88.22,1.73.64,2.49-1.26.99-1.99,2.48-1.99,4.08Zm3.25-3.35s.02-.01.03-.02c0,0,.01-.01.02-.02,0,0,0,0,0,0,0,0,.01,0,.02-.01,0,0,0,0,.01,0,0,0,0,0,.01-.01,0,0,.01-.01.02-.02.01-.01.02-.02.03-.04,0,0,.02-.02.02-.03,0,0,0,0,0,0,.06-.08.1-.17.12-.27.02-.12.01-.24-.03-.35-.02-.06-.05-.11-.09-.16,0-.01-.02-.02-.02-.03-.13-.18-.24-.37-.34-.57-.25-.52-.39-1.1-.39-1.68,0-2.17,1.8-3.93,4.01-3.94,0,0,.02,0,.03,0,.07,0,.15,0,.24,0,.2.01.39-.06.52-.2,0,0,.01-.01.02-.02.04-.05.08-.1.11-.16.06-.12.08-.25.05-.39-.01-.06-.02-.12-.03-.19-.03-.22-.04-.44-.04-.65,0-2.8,2.33-5.07,5.19-5.07.05,0,.09,0,.14,0,.22,0,.44.02.66.06,0,0,.01,0,.02,0,.12.02.24,0,.35-.05.16-.07.29-.19.36-.36.02-.04.03-.08.04-.12.33-1.58,1.51-2.88,3.07-3.39,1.17-.38,2.42-.29,3.52.25,1.1.54,1.92,1.47,2.31,2.61.15.46.23.93.23,1.41,0,.01,0,.03,0,.04,0,.1.03.21.07.3v38.58c0,2.18-1.81,3.94-4.04,3.94-1.75,0-3.29-1.11-3.83-2.7-.05-.14-.09-.29-.12-.44-.02-.09-.06-.17-.11-.25-.05-.07-.11-.12-.18-.17-.01,0-.03-.02-.04-.03-.16-.09-.35-.11-.53-.05,0,0,0,0,0,0,0,0-.01,0-.02,0,0,0,0,0,0,0,0,0,0,0,0,0,0,0,0,0,0,0-.6.22-1.24.33-1.88.33-2.97,0-5.38-2.36-5.38-5.26,0-.12,0-.24.01-.36.01-.16.03-.32.06-.48.01-.07.01-.14,0-.2-.01-.1-.05-.19-.11-.28,0-.01-.02-.03-.03-.04-.12-.14-.3-.23-.49-.24-.01,0-.02,0-.03,0-2.32-.15-4.12-2.04-4.12-4.31,0-.44.07-.87.2-1.28.07-.21.15-.42.26-.63.02-.03.03-.06.05-.09.02-.04.03-.07.05-.11.08-.25,0-.52-.21-.7,0,0,0,0-.01,0,0,0-.01-.01-.02-.02,0,0,0,0,0,0-1.03-.74-1.65-1.93-1.65-3.18,0-.88.29-1.71.83-2.4,0,0,0,0,0,0,0,0,0,0,0-.01.18-.23.19-.55.01-.79,0,0,0-.01-.01-.02-.02-.03-.05-.06-.07-.09-.14-.18-.26-.38-.36-.58-.27-.54-.42-1.13-.42-1.74,0-1.37.71-2.62,1.9-3.35Zm5.11,10.81c.5.25,1.84,1.01,2.69,2.63.72,1.36.71,2.63.67,3.19m.69-.4c0,.16,0,.31-.02.45-.02.36-.34.64-.72.61-.37-.02-.65-.34-.63-.7.05-.69-.02-1.75-.6-2.85-.7-1.34-1.81-2.05-2.4-2.35-.33-.17-.46-.56-.29-.89.17-.32.58-.45.91-.28.74.37,2.1,1.25,2.98,2.91.61,1.15.76,2.26.76,3.09Zm1.8,4.63c.9-1.23,2.48-1.79,3.95-1.41,1.4.36,2.47,1.51,2.71,2.92m.67,0c0,.32-.23.59-.56.65-.37.06-.71-.18-.77-.54-.2-1.16-1.07-2.1-2.22-2.39-1.2-.31-2.5.16-3.24,1.16-.22.29-.64.36-.94.15-.3-.21-.37-.62-.15-.92,1.06-1.44,2.94-2.11,4.67-1.66,1.66.43,2.92,1.78,3.2,3.45,0,.04,0,.07,0,.11Zm2.5-11.23c-.48,1.07-1.57,1.74-2.75,1.69-1.12-.05-2.11-.74-2.53-1.77m5.95.08c0,.09-.02.18-.06.26-.58,1.31-1.95,2.14-3.39,2.08-1.38-.06-2.61-.92-3.12-2.19-.14-.34.03-.72.38-.85.35-.13.74.03.87.37.32.79,1.08,1.32,1.93,1.36.89.04,1.74-.48,2.1-1.29.15-.33.55-.48.89-.34.25.11.4.35.4.6Zm-4.2-18.94c-.62-1-.54-2.26.17-3.17.69-.86,1.84-1.25,2.94-.99m.67,0c0,.05,0,.1-.02.16-.09.35-.45.57-.81.48-.84-.2-1.73.1-2.25.76-.55.69-.6,1.66-.13,2.42.19.31.09.71-.23.9-.32.19-.73.09-.92-.22-.76-1.22-.67-2.79.22-3.91.85-1.07,2.27-1.55,3.63-1.23.31.07.51.34.51.64Zm-10.8,17.7c.12.62.37,2.35-.43,4.08-.68,1.46-1.76,2.16-2.26,2.44m3.5-5.12c0,.87-.14,1.91-.62,2.95-.69,1.48-1.76,2.31-2.54,2.74-.32.18-.73.07-.92-.25-.18-.32-.07-.72.25-.9.6-.33,1.44-.97,1.98-2.14.67-1.44.53-2.93.38-3.69-.07-.36.17-.7.54-.77.37-.07.72.17.78.53.07.38.14.9.14,1.52Zm-.5-13.86c-.22.5-.91,1.86-2.5,2.8-1.34.79-2.64.87-3.21.87m6.39-3.67c0,.09-.02.18-.06.26-.33.74-1.13,2.14-2.77,3.1-1.35.8-2.68.96-3.56.97-.37,0-.67-.29-.67-.66h0c0-.36.3-.66.67-.66.71,0,1.78-.14,2.87-.78,1.32-.78,1.97-1.9,2.23-2.5.15-.33.54-.49.89-.34.25.11.4.35.4.6Zm-1.72,1.86c.65-.04,2.43-.06,4.08.94,1.39.84,1.97,1.98,2.18,2.5m.67,0c0,.26-.16.51-.42.61-.34.14-.74-.03-.88-.36-.26-.63-.81-1.52-1.92-2.19-1.38-.83-2.9-.89-3.69-.84-.37.02-.69-.26-.71-.62-.02-.36.26-.67.63-.69.95-.05,2.78.01,4.48,1.04,1.42.86,2.12,2,2.45,2.81.03.08.05.16.05.25ZM2.66,26.39s1.8-2.11,3.63-2.58l-3.63,2.58Zm4.3-2.58c0,.29-.2.56-.5.64-1.59.41-3.26,2.35-3.28,2.37-.24.28-.66.32-.95.08-.29-.23-.32-.65-.09-.93.08-.09,1.96-2.28,3.97-2.8.36-.09.73.12.82.47.02.06.02.11.02.17Zm.05,10.14c-1.39.66-3.42-1.03-3.42-1.03l3.42,1.03Zm.67,0c0,.24-.14.48-.38.59-1.73.82-3.91-.92-4.15-1.12-.28-.24-.32-.65-.08-.93.24-.28.66-.31.95-.07h0c.44.37,1.88,1.32,2.69.94.33-.16.74-.02.9.3.05.09.07.19.07.29Zm2.76-20.43c-1.42.13-2.44-1.11-2.44-1.11l2.44,1.11Zm.67,0c0,.33-.26.62-.61.65-1.76.17-2.98-1.29-3.03-1.35-.23-.28-.19-.7.1-.92.29-.23.71-.18.94.1.02.02.83.97,1.85.87.37-.03.7.23.73.59,0,.02,0,.04,0,.06Zm6.51,30.58c-.67,2.25-1.73,2.59-1.73,2.59l1.73-2.59Zm.67,0c0,.06,0,.12-.03.18-.74,2.46-1.93,2.95-2.17,3.03l-.41-1.25s-.01,0-.03,0c0,0,.78-.34,1.32-2.15.1-.35.48-.55.83-.45.29.08.48.35.48.63Zm-7.86-5.68c-.55,1.74-2.64,1.77-2.64,1.77l2.64-1.77Zm.67,0c0,.06,0,.13-.03.2-.69,2.17-3.16,2.23-3.27,2.24-.37,0-.68-.28-.68-.65,0,0,0,0,0-.01,0-.36.29-.65.66-.66.07,0,1.61-.06,2.01-1.31.11-.35.49-.54.84-.43.29.09.47.35.47.63ZM3.89,19.67s.66-.86,2.39-.85l-2.39.85Zm3.07-.85h0c0,.37-.31.66-.68.66-1.33,0-1.85.58-1.85.59-.22.29-.65.35-.94.13-.3-.22-.35-.63-.13-.92.09-.11.93-1.12,2.93-1.11.37,0,.67.3.67.66Zm8.61-10.78c-1.4-.68-.88-2.3-.88-2.3l.88,2.3Zm.67,0c0,.1-.02.2-.07.29-.16.33-.57.46-.9.3-1.51-.73-1.47-2.34-1.23-3.08.11-.35.49-.54.84-.43.35.11.55.47.44.82-.03.12-.31,1.11.54,1.52.24.11.37.35.37.59Z" fill="#fff"/></svg>
